<svg id="Layer_1" data-name="Layer 1" xmlns="http://www.w3.org/2000/svg" width="129" height="129" viewBox="0 0 129 129"><title>logo</title><path d="M64.577,33.971c-5.69,0-10.485,3.9-10.485,10.93s4.8,10.706,10.485,10.706S75.059,51.928,75.059,44.9s-4.8-10.93-10.483-10.93M50.188,87.838c0,6.246,4.907,10.6,14.5,10.6,9.817,0,14.165-4.462,14.165-10.262,0-6.246-4.015-8.366-9.479-8.366H57.995c-1.448,0-2.9-.109-4.127-0.221a9.8,9.8,0,0,0-3.68,8.251M81.415,34.752a18.645,18.645,0,0,1,2.79,10.15c0,11.71-8.589,18.737-19.629,18.737a22.524,22.524,0,0,1-9.705-2.008c-2.564,1.227-3.68,3.011-3.68,5.464,0,3.011,2.231,4.686,6.358,4.686h13.27c10.485,0,17.621,5.24,17.621,15.5,0,13.829-10.93,19.4-23.755,19.4-14.274,0-23.865-6.8-23.865-18.513a15.1,15.1,0,0,1,5.24-11.71,11.16,11.16,0,0,1-3.792-8.922c0-4.8,2.676-8.254,6.8-10.373A18.911,18.911,0,0,1,44.946,44.9c0-11.6,8.589-18.96,19.631-18.96a22.086,22.086,0,0,1,10.147,2.564l10.038-5.687L89,30.513ZM122,122H7V7H122V122ZM129,0H0V129H129V0Z"/></svg>